<svg width="32" height="32" viewBox="0 0 32 32" fill="none" xmlns="http://www.w3.org/2000/svg">
<rect width="32" height="32" rx="10" fill="#2166EC"/>
<path d="M13.9146 25.2C13.2725 25.2 12.517 24.9451 12.026 24.4349L5.6421 17.6584C5.18889 17.1849 5 16.5289 5 16.0191C5 14.7074 6.0576 13.7238 7.37983 13.7238C8.17311 13.7238 8.7775 14.0881 9.15528 14.4889L13.8015 19.3344L23.0184 7.02003C23.4717 6.43711 24.1515 6 25.0205 6C26.267 6 27.4 6.98365 27.4 8.25893C27.4 8.65967 27.2111 9.16953 26.8714 9.64333L15.9167 24.3255C15.5012 24.872 14.7459 25.2 13.9146 25.2Z" fill="white"/>
</svg>
