<svg width="257" height="56" viewBox="0 0 257 56" fill="none" xmlns="http://www.w3.org/2000/svg">
<path d="M20.5 44C31.5973 44 41 34.7186 41 23.4998C41 12.2411 31.7185 3 20.5 3C9.2412 3 0 12.2814 0 23.4998C0 34.7992 9.2412 44 20.5 44Z" fill="#2166EC"/>
<path d="M17.5715 35.8001C16.7488 35.8001 15.7808 35.4734 15.1518 34.8198L6.97235 26.1374C6.39167 25.5308 6.14966 24.6903 6.14966 24.037C6.14966 22.3565 7.5047 21.0962 9.19882 21.0962C10.2152 21.0962 10.9896 21.563 11.4736 22.0764L17.4266 28.2848L29.2358 12.507C29.8165 11.7601 30.6875 11.2001 31.8009 11.2001C33.398 11.2001 34.8497 12.4604 34.8497 14.0943C34.8497 14.6078 34.6076 15.261 34.1723 15.8681L20.1366 34.6796C19.6043 35.3798 18.6366 35.8001 17.5715 35.8001Z" fill="white"/>
<path d="M65.9062 9.875V44H59.4844V9.875H65.9062ZM76.5 9.875V14.9609H49.0078V9.875H76.5ZM75.5625 31.5781V31.0859C75.5625 29.2266 75.8281 27.5156 76.3594 25.9531C76.8906 24.375 77.6641 23.0078 78.6797 21.8516C79.6953 20.6953 80.9375 19.7969 82.4062 19.1562C83.875 18.5 85.5469 18.1719 87.4219 18.1719C89.3281 18.1719 91.0156 18.5 92.4844 19.1562C93.9688 19.7969 95.2188 20.6953 96.2344 21.8516C97.25 23.0078 98.0234 24.375 98.5547 25.9531C99.0859 27.5156 99.3516 29.2266 99.3516 31.0859V31.5781C99.3516 33.4219 99.0859 35.1328 98.5547 36.7109C98.0234 38.2734 97.25 39.6406 96.2344 40.8125C95.2188 41.9688 93.9766 42.8672 92.5078 43.5078C91.0391 44.1484 89.3594 44.4688 87.4688 44.4688C85.5938 44.4688 83.9141 44.1484 82.4297 43.5078C80.9453 42.8672 79.6953 41.9688 78.6797 40.8125C77.6641 39.6406 76.8906 38.2734 76.3594 36.7109C75.8281 35.1328 75.5625 33.4219 75.5625 31.5781ZM81.75 31.0859V31.5781C81.75 32.6875 81.8594 33.7266 82.0781 34.6953C82.2969 35.6641 82.6328 36.5156 83.0859 37.25C83.5391 37.9844 84.125 38.5625 84.8438 38.9844C85.5781 39.3906 86.4531 39.5938 87.4688 39.5938C88.4688 39.5938 89.3281 39.3906 90.0469 38.9844C90.7656 38.5625 91.3516 37.9844 91.8047 37.25C92.2734 36.5156 92.6172 35.6641 92.8359 34.6953C93.0547 33.7266 93.1641 32.6875 93.1641 31.5781V31.0859C93.1641 29.9922 93.0547 28.9688 92.8359 28.0156C92.6172 27.0469 92.2734 26.1953 91.8047 25.4609C91.3516 24.7109 90.7578 24.125 90.0234 23.7031C89.3047 23.2656 88.4375 23.0469 87.4219 23.0469C86.4219 23.0469 85.5625 23.2656 84.8438 23.7031C84.125 24.125 83.5391 24.7109 83.0859 25.4609C82.6328 26.1953 82.2969 27.0469 82.0781 28.0156C81.8594 28.9688 81.75 29.9922 81.75 31.0859ZM114.516 44H107.156L107.203 38.9375H114.516C116.5 38.9375 118.164 38.5 119.508 37.625C120.852 36.7344 121.867 35.4609 122.555 33.8047C123.242 32.1328 123.586 30.1328 123.586 27.8047V26.0469C123.586 24.25 123.391 22.6641 123 21.2891C122.609 19.9141 122.031 18.7578 121.266 17.8203C120.516 16.8828 119.586 16.1719 118.477 15.6875C117.367 15.2031 116.094 14.9609 114.656 14.9609H107.016V9.875H114.656C116.938 9.875 119.016 10.2578 120.891 11.0234C122.781 11.7891 124.414 12.8906 125.789 14.3281C127.18 15.75 128.242 17.4531 128.977 19.4375C129.727 21.4219 130.102 23.6406 130.102 26.0938V27.8047C130.102 30.2422 129.727 32.4609 128.977 34.4609C128.242 36.4453 127.18 38.1484 125.789 39.5703C124.414 40.9922 122.773 42.0859 120.867 42.8516C118.961 43.6172 116.844 44 114.516 44ZM110.766 9.875V44H104.32V9.875H110.766ZM134.016 31.5781V31.0859C134.016 29.2266 134.281 27.5156 134.812 25.9531C135.344 24.375 136.117 23.0078 137.133 21.8516C138.148 20.6953 139.391 19.7969 140.859 19.1562C142.328 18.5 144 18.1719 145.875 18.1719C147.781 18.1719 149.469 18.5 150.938 19.1562C152.422 19.7969 153.672 20.6953 154.688 21.8516C155.703 23.0078 156.477 24.375 157.008 25.9531C157.539 27.5156 157.805 29.2266 157.805 31.0859V31.5781C157.805 33.4219 157.539 35.1328 157.008 36.7109C156.477 38.2734 155.703 39.6406 154.688 40.8125C153.672 41.9688 152.43 42.8672 150.961 43.5078C149.492 44.1484 147.812 44.4688 145.922 44.4688C144.047 44.4688 142.367 44.1484 140.883 43.5078C139.398 42.8672 138.148 41.9688 137.133 40.8125C136.117 39.6406 135.344 38.2734 134.812 36.7109C134.281 35.1328 134.016 33.4219 134.016 31.5781ZM140.203 31.0859V31.5781C140.203 32.6875 140.312 33.7266 140.531 34.6953C140.75 35.6641 141.086 36.5156 141.539 37.25C141.992 37.9844 142.578 38.5625 143.297 38.9844C144.031 39.3906 144.906 39.5938 145.922 39.5938C146.922 39.5938 147.781 39.3906 148.5 38.9844C149.219 38.5625 149.805 37.9844 150.258 37.25C150.727 36.5156 151.07 35.6641 151.289 34.6953C151.508 33.7266 151.617 32.6875 151.617 31.5781V31.0859C151.617 29.9922 151.508 28.9688 151.289 28.0156C151.07 27.0469 150.727 26.1953 150.258 25.4609C149.805 24.7109 149.211 24.125 148.477 23.7031C147.758 23.2656 146.891 23.0469 145.875 23.0469C144.875 23.0469 144.016 23.2656 143.297 23.7031C142.578 24.125 141.992 24.7109 141.539 25.4609C141.086 26.1953 140.75 27.0469 140.531 28.0156C140.312 28.9688 140.203 29.9922 140.203 31.0859ZM188.297 15.0547L178.57 44H171.75L184.5 9.875H188.859L188.297 15.0547ZM196.43 44L186.656 15.0547L186.07 9.875H190.453L203.273 44H196.43ZM195.984 31.3203V36.4062H177.68V31.3203H195.984ZM211.898 23.5156V53.75H205.688V18.6406H211.43L211.898 23.5156ZM228.188 31.0625V31.5547C228.188 33.3984 227.969 35.1094 227.531 36.6875C227.109 38.25 226.484 39.6172 225.656 40.7891C224.828 41.9453 223.797 42.8516 222.562 43.5078C221.344 44.1484 219.938 44.4688 218.344 44.4688C216.781 44.4688 215.422 44.1719 214.266 43.5781C213.109 42.9688 212.133 42.1094 211.336 41C210.539 39.8906 209.898 38.6016 209.414 37.1328C208.945 35.6484 208.594 34.0312 208.359 32.2812V30.7109C208.594 28.8516 208.945 27.1641 209.414 25.6484C209.898 24.1172 210.539 22.7969 211.336 21.6875C212.133 20.5625 213.102 19.6953 214.242 19.0859C215.398 18.4766 216.75 18.1719 218.297 18.1719C219.906 18.1719 221.32 18.4766 222.539 19.0859C223.773 19.6953 224.812 20.5703 225.656 21.7109C226.5 22.8516 227.133 24.2109 227.555 25.7891C227.977 27.3672 228.188 29.125 228.188 31.0625ZM221.977 31.5547V31.0625C221.977 29.9375 221.875 28.8984 221.672 27.9453C221.469 26.9766 221.156 26.1328 220.734 25.4141C220.312 24.6797 219.766 24.1094 219.094 23.7031C218.422 23.2969 217.609 23.0938 216.656 23.0938C215.703 23.0938 214.883 23.25 214.195 23.5625C213.508 23.875 212.945 24.3203 212.508 24.8984C212.07 25.4766 211.727 26.1641 211.477 26.9609C211.242 27.7422 211.086 28.6094 211.008 29.5625V33.4531C211.148 34.6094 211.422 35.6484 211.828 36.5703C212.234 37.4922 212.828 38.2266 213.609 38.7734C214.406 39.3203 215.438 39.5938 216.703 39.5938C217.656 39.5938 218.469 39.3828 219.141 38.9609C219.812 38.5391 220.359 37.9609 220.781 37.2266C221.203 36.4766 221.508 35.6172 221.695 34.6484C221.883 33.6797 221.977 32.6484 221.977 31.5547ZM238.898 23.5156V53.75H232.688V18.6406H238.43L238.898 23.5156ZM255.188 31.0625V31.5547C255.188 33.3984 254.969 35.1094 254.531 36.6875C254.109 38.25 253.484 39.6172 252.656 40.7891C251.828 41.9453 250.797 42.8516 249.562 43.5078C248.344 44.1484 246.938 44.4688 245.344 44.4688C243.781 44.4688 242.422 44.1719 241.266 43.5781C240.109 42.9688 239.133 42.1094 238.336 41C237.539 39.8906 236.898 38.6016 236.414 37.1328C235.945 35.6484 235.594 34.0312 235.359 32.2812V30.7109C235.594 28.8516 235.945 27.1641 236.414 25.6484C236.898 24.1172 237.539 22.7969 238.336 21.6875C239.133 20.5625 240.102 19.6953 241.242 19.0859C242.398 18.4766 243.75 18.1719 245.297 18.1719C246.906 18.1719 248.32 18.4766 249.539 19.0859C250.773 19.6953 251.812 20.5703 252.656 21.7109C253.5 22.8516 254.133 24.2109 254.555 25.7891C254.977 27.3672 255.188 29.125 255.188 31.0625ZM248.977 31.5547V31.0625C248.977 29.9375 248.875 28.8984 248.672 27.9453C248.469 26.9766 248.156 26.1328 247.734 25.4141C247.312 24.6797 246.766 24.1094 246.094 23.7031C245.422 23.2969 244.609 23.0938 243.656 23.0938C242.703 23.0938 241.883 23.25 241.195 23.5625C240.508 23.875 239.945 24.3203 239.508 24.8984C239.07 25.4766 238.727 26.1641 238.477 26.9609C238.242 27.7422 238.086 28.6094 238.008 29.5625V33.4531C238.148 34.6094 238.422 35.6484 238.828 36.5703C239.234 37.4922 239.828 38.2266 240.609 38.7734C241.406 39.3203 242.438 39.5938 243.703 39.5938C244.656 39.5938 245.469 39.3828 246.141 38.9609C246.812 38.5391 247.359 37.9609 247.781 37.2266C248.203 36.4766 248.508 35.6172 248.695 34.6484C248.883 33.6797 248.977 32.6484 248.977 31.5547Z" fill="black"/>
</svg>
